PathFileType	4	(x/y/z)	S05_P20_T22
DataRate	CameraRate	NumFrames	NumMarkers	Units	OrigDataRate	OrigDataStartFrame	OrigNumFrames
240	240	4	50	mm	240	49	391
Frame#	Time	Sternum			R.Acromium			L.Acromium			Top.Head			R.ASIS			L.ASIS			R.PSIS			L.PSIS			R.Great.Tro			L.Great.Tro			R.Iliac.Crest			L.Iliac.Crest			V.Sacral			R.Thigh.Upper.Post			R.Thigh.Lower.Ant			R.Thigh.Lower.Post			R.Thigh.Upper.Ant			R.Knee.Lat			R.Knee.Med			R.Shank.Upper.Post			R.Shank.Lower.Ant			R.Shank.Lower.Post			R.Shank.Upper.Ant			R.Ankle.Lat			R.Ankle.Med			R.Heel.Upper			R.Heel.Med			R.Heel.Lat			R.Toe.Lat			R.Toe.Med			R.Toe.Tip			L.Thigh.Upper.Post			L.Thigh.Lower.Ant			L.Thigh.Lower.Post			L.Thigh.Upper.Ant			L.Knee.Lat			L.Shank.Upper.Post			L.Shank.Lower.Ant			L.Shank.Lower.Post			L.Shank.Upper.Ant			L.Ankle.Lat			L.Ankle.Med			L.Heel.Upper			L.Heel.Med			L.Heel.Lat			L.Toe.Lat			L.Toe.Med			L.Toe.Tip			Cervical.Spine			Back			
		X1	Y1	Z1	X2	Y2	Z2	X3	Y3	Z3	X4	Y4	Z4	X5	Y5	Z5	X6	Y6	Z6	X7	Y7	Z7	X8	Y8	Z8	X9	Y9	Z9	X10	Y10	Z10	X11	Y11	Z11	X12	Y12	Z12	X13	Y13	Z13	X14	Y14	Z14	X15	Y15	Z15	X16	Y16	Z16	X17	Y17	Z17	X18	Y18	Z18	X19	Y19	Z19	X20	Y20	Z20	X21	Y21	Z21	X22	Y22	Z22	X23	Y23	Z23	X24	Y24	Z24	X25	Y25	Z25	X26	Y26	Z26	X27	Y27	Z27	X28	Y28	Z28	X29	Y29	Z29	X30	Y30	Z30	X31	Y31	Z31	X32	Y32	Z32	X33	Y33	Z33	X34	Y34	Z34	X35	Y35	Z35	X36	Y36	Z36	X37	Y37	Z37	X38	Y38	Z38	X39	Y39	Z39	X40	Y40	Z40	X41	Y41	Z41	X42	Y42	Z42	X43	Y43	Z43	X44	Y44	Z44	X45	Y45	Z45	X46	Y46	Z46	X47	Y47	Z47	X48	Y48	Z48	X49	Y49	Z49	X50	Y50	Z50	

49	0.2	NaN	NaN	NaN	-1200.2	1515.4	463.06	-1215.2	1525.6	136.87	-1213.6	1815.7	286.84	NaN	NaN	NaN	NaN	NaN	NaN	NaN	NaN	NaN	NaN	NaN	NaN	-1273.6	911.44	496.28	-1247.8	927.18	104.96	-1285.4	1076.7	474.06	-1258.1	1081.5	137.48	-1390.9	976.38	302.89	-1177.3	697.64	516.06	-1108.3	632.56	469.68	-1171.7	607.94	498.39	NaN	NaN	NaN	-1173	515.61	486.9	NaN	NaN	NaN	-1387.8	415.93	452.08	-1403.2	327.52	449.28	-1446.6	370.24	429.25	-1342.7	373.37	470.51	-1496.1	278.35	423.74	-1456.2	283.54	340.11	-1558.8	303.84	351.34	NaN	NaN	NaN	NaN	NaN	NaN	-1518.6	134.13	445.4	NaN	NaN	NaN	NaN	NaN	NaN	-1184	688.54	120.16	-1089.3	637.87	144.65	-1152.8	600.68	139.93	NaN	NaN	NaN	-1118.6	516.98	150.1	-1176	315.28	160.31	NaN	NaN	NaN	-1176.1	243.9	181.66	-1109.6	327.18	151.27	-1147.5	110.53	199.29	-1111.8	129.68	283.64	-1203.5	65.489	257.04	-1190.8	39.984	286.93	-1204.4	39.899	229	-1027.1	38.304	160.97	NaN	NaN	NaN	-932.95	59.507	218.71	-1258.2	1555.8	307.08	-1375.7	1282.4	310.2
50	0.20417	NaN	NaN	NaN	-1194.9	1516	462.71	-1209.6	1526	136.49	-1208.1	1816.2	286.45	NaN	NaN	NaN	NaN	NaN	NaN	NaN	NaN	NaN	NaN	NaN	NaN	-1268	912.14	496.15	-1243.3	927.76	104.71	-1280	1077.3	473.82	-1253.4	1082.1	137.19	-1385.9	976.92	302.88	-1168	699.41	516.19	-1098.3	635.55	469.58	-1161.3	609.9	498.47	NaN	NaN	NaN	-1160.9	517.65	486.98	NaN	NaN	NaN	-1375.7	418.52	451.77	-1391.3	330.11	449.21	-1434.8	372.98	429.12	-1330.7	375.89	470.37	-1484.5	281.25	423.61	-1444.3	286.21	339.88	-1547.3	306.24	350.96	NaN	NaN	NaN	NaN	NaN	NaN	-1506.3	137.35	445.93	NaN	NaN	NaN	NaN	NaN	NaN	-1180.6	689.01	119.89	-1086.2	637.7	144.31	-1149.8	600.94	139.62	NaN	NaN	NaN	-1116.1	516.97	149.8	-1174.7	315.52	160.21	NaN	NaN	NaN	-1175.1	244.22	181.68	-1108.2	327.05	151.07	-1147.3	110.66	199.31	-1111.5	129.73	283.65	-1203.4	65.653	257.13	-1190.6	40.104	286.85	-1204.3	40.061	229.02	-1027	38.28	160.95	NaN	NaN	NaN	-932.89	59.319	218.69	-1252.7	1556.4	306.67	-1370.4	1283.1	309.74
51	0.20833	NaN	NaN	NaN	-1189.5	1516.6	462.39	-1204	1526.6	136.13	-1202.6	1816.9	286.1	NaN	NaN	NaN	NaN	NaN	NaN	NaN	NaN	NaN	NaN	NaN	NaN	-1262.3	912.95	496.05	-1238.9	928.34	104.49	-1274.7	1078	473.59	-1248.6	1082.8	136.91	-1380.9	977.52	302.89	-1158.9	701.32	516.2	-1088.3	638.67	469.42	-1151.1	612.01	498.47	NaN	NaN	NaN	-1149.1	519.85	486.98	NaN	NaN	NaN	-1363.7	420.92	451.39	-1379.3	332.5	449.1	-1423	375.43	428.93	-1318.7	378.3	470.15	-1472.7	283.77	423.44	-1432.2	288.61	339.61	-1535.7	308.17	350.61	NaN	NaN	NaN	NaN	NaN	NaN	-1493.5	140.17	446.39	NaN	NaN	NaN	NaN	NaN	NaN	-1177.3	689.47	119.67	-1083.2	637.53	144.01	-1146.9	601.2	139.37	NaN	NaN	NaN	-1113.8	516.96	149.55	-1173.5	315.76	160.17	NaN	NaN	NaN	-1174.1	244.54	181.74	-1106.9	326.95	150.92	-1147	110.79	199.35	-1111.2	129.78	283.68	-1203.4	65.836	257.23	-1190.4	40.263	286.82	-1204.3	40.226	229.05	-1026.9	38.25	160.93	NaN	NaN	NaN	-932.82	59.145	218.68	-1247.2	1557.1	306.29	-1365.1	1283.9	309.29
52	0.2125	NaN	NaN	NaN	-1184.2	1517.2	462.08	-1198.4	1527.2	135.8	-1197.2	1817.6	285.76	NaN	NaN	NaN	NaN	NaN	NaN	NaN	NaN	NaN	NaN	NaN	NaN	-1256.7	913.85	495.96	-1234.6	928.92	104.3	-1269.3	1078.7	473.35	-1243.9	1083.4	136.63	-1375.9	978.18	302.93	-1149.9	703.36	516.1	-1078.5	641.9	469.19	-1141	614.25	498.37	NaN	NaN	NaN	-1137.4	522.2	486.9	NaN	NaN	NaN	-1351.8	423.14	450.95	-1367.2	334.67	448.95	-1411.1	377.58	428.69	-1306.6	380.57	469.88	-1460.6	285.9	423.24	-1420	290.73	339.3	-1524.1	309.61	350.28	NaN	NaN	NaN	NaN	NaN	NaN	-1480.2	142.58	446.78	NaN	NaN	NaN	NaN	NaN	NaN	-1174.2	689.91	119.5	-1080.3	637.37	143.74	-1144.1	601.47	139.17	NaN	NaN	NaN	-1111.5	516.95	149.35	-1172.3	316	160.16	NaN	NaN	NaN	-1173.2	244.87	181.85	-1105.6	326.86	150.8	-1146.7	110.93	199.4	-1110.9	129.84	283.71	-1203.4	66.04	257.35	-1190.2	40.466	286.84	-1204.2	40.393	229.08	-1026.7	38.213	160.93	NaN	NaN	NaN	-932.76	58.981	218.68	-1241.7	1557.8	305.92	-1359.9	1284.7	308.84
